<svg xmlns="http://www.w3.org/2000/svg" width="112" height="59" viewBox="0 0 112 59" fill="none"><g clip-path="url(#clip0_375_27)"><path d="M112 21.3955H0.559998V15.7022L56.28 0.893311L112 15.7022V21.3955Z" fill="#FDB913"></path><path d="M36.2445 26.9022H41.8133V39.8444C41.8133 41.3999 41.44 42.7377 40.6933 43.8888C39.9467 45.0088 38.92 45.911 37.5822 46.5022C36.2445 47.1244 34.72 47.4355 32.9778 47.4355C31.2356 47.4355 29.68 47.1244 28.3422 46.5022C27.0045 45.8799 25.9778 45.0088 25.2622 43.8888C24.5156 42.7688 24.1733 41.3999 24.1733 39.8444V26.9022H29.7422V39.3466C29.7422 39.9688 29.8978 40.5288 30.1467 41.0266C30.4267 41.5244 30.8 41.8977 31.2978 42.1777C31.7956 42.4577 32.3556 42.5822 32.9778 42.5822C33.6 42.5822 34.1911 42.4577 34.6889 42.1777C35.1867 41.8977 35.56 41.5244 35.84 41.0266C36.12 40.5288 36.2445 39.9688 36.2445 39.3466V26.9022Z" fill="white"></path><path d="M45.7333 32.16V26.9333H60.2622V32.16H55.6889V46.9688H50.2133V32.16H45.7333Z" fill="white"></path><path d="M86.52 26.9022V46.9377H80.9511V26.9022H86.52Z" fill="white"></path><path d="M10.4533 26.5288C4.66667 26.5288 0 31.2266 0 36.9821C0 42.7377 4.66667 47.4355 10.4533 47.4355C16.24 47.4355 20.9067 42.7688 20.9067 36.9821C20.9067 31.1955 16.24 26.5288 10.4533 26.5288ZM10.4533 41.8355C7.77778 41.8355 5.6 39.6577 5.6 36.9821C5.6 34.3066 7.77778 32.1288 10.4533 32.1288C13.1289 32.1288 15.3067 34.3066 15.3067 36.9821C15.3067 39.6577 13.1289 41.8355 10.4533 41.8355Z" fill="white"></path><path d="M101.609 58.1066H0.622192V52.5999H101.609C104.253 52.5999 106.431 50.4533 106.431 47.7777V26.9022H111.938V47.7777C111.938 53.471 107.302 58.1066 101.609 58.1066Z" fill="white"></path><path d="M99.5244 26.5288C94.2355 26.5288 89.9733 31.2266 89.9733 36.9821C89.9733 42.7377 94.2355 47.4355 99.5244 47.4355C104.813 47.4355 109.076 42.7377 109.076 36.9821C109.076 31.2266 104.813 26.5288 99.5244 26.5288ZM100.893 41.7732C98.2489 41.7732 96.0711 39.6266 96.0711 36.951C96.0711 34.2755 98.2178 32.1288 100.893 32.1288C103.569 32.1288 105.716 34.2755 105.716 36.951C105.716 39.6266 103.569 41.7732 100.893 41.7732Z" fill="white"></path><path d="M64.3067 46.9377V26.9022H69.72V30.2622H69.9378C70.3111 29.0177 70.9333 28.0533 71.8045 27.4311C72.6756 26.7777 73.6711 26.4666 74.7911 26.4666C75.9111 26.4666 75.3822 26.4666 75.6933 26.5288C76.0045 26.5599 76.3156 26.6222 76.5333 26.6844V32.6266C76.2845 32.5333 75.9111 32.4711 75.4445 32.4088C74.9778 32.3466 74.5422 32.3155 74.1689 32.3155C73.36 32.3155 72.6133 32.5022 71.96 32.8444C71.3067 33.1866 70.8089 33.6844 70.4356 34.3377C70.0622 34.9599 69.8756 35.7066 69.8756 36.5155V46.9377H64.2756H64.3067Z" fill="white"></path></g><defs><clipPath id="clip0_375_27"><rect width="112" height="57.2133" fill="white" transform="translate(0 0.893311)"></rect></clipPath></defs></svg>