<svg xmlns="http://www.w3.org/2000/svg" width="20" height="21" viewBox="0 0 20 21" fill="none"><path d="M16.5309 20.3463L19.7904 17.0863C20.079 16.7976 20.0546 16.3246 19.7393 16.067L14.9767 12.1831C14.7036 11.961 14.3039 11.981 14.0553 12.2297L12.6098 13.6754C12.6098 13.6754 11.5507 13.4777 9.48579 11.4125C7.42088 9.34723 7.27878 8.34127 7.27878 8.34127L8.72422 6.8956C8.9729 6.64689 8.9951 6.24717 8.77085 5.97402L4.8897 1.21289C4.63214 0.897556 4.15699 0.873128 3.87057 1.16182L0.602231 4.42843C0.000520349 5.03246 -0.174886 5.94071 0.160384 6.72683C0.921959 8.51004 2.6294 11.8078 5.86221 15.0411C9.09945 18.2788 12.43 20.011 14.2262 20.7882C15.0122 21.128 15.927 20.9547 16.5331 20.3485L16.5309 20.3463Z" fill="#F04C35"></path></svg>